<svg xmlns="http://www.w3.org/2000/svg" data-name="Layer 1" viewBox="0 0 100 125" x="0px" y="0px"><path d="M77.66,74.12c-.3-.41-.69-.76-1.05-1.12-4.6-4.61-9.21-9.22-13.81-13.83-.36-.36-.7-.73-1.09-1.15,7.88-10.53,5.37-23.42-2.76-30.51-8.4-7.34-20.87-7.34-29.23-.02-8.45,7.4-10.03,20-3.66,29.22,3.16,4.57,7.46,7.59,12.87,8.93,7.03,1.74,13.44,.18,19.25-4.1,.44,.42,.82,.76,1.18,1.12,4.61,4.6,9.22,9.21,13.83,13.81,.33,.33,.64,.67,1,.96,1.02,.81,2.33,.76,3.23-.1,.88-.84,1-2.18,.24-3.21Zm-33.43-12.68c-9.49-.02-17.22-7.77-17.23-17.26,0-9.55,7.8-17.33,17.36-17.3,9.54,.03,17.27,7.85,17.22,17.43-.06,9.48-7.83,17.15-17.35,17.13Z"/><text x="0" y="115" fill="#000000" font-size="5px" font-weight="bold" font-family="'Helvetica Neue', Helvetica, Arial-Unicode, Arial, Sans-serif">Created by kenneth bryan chung</text><text x="0" y="120" fill="#000000" font-size="5px" font-weight="bold" font-family="'Helvetica Neue', Helvetica, Arial-Unicode, Arial, Sans-serif">from the Noun Project</text></svg>